<?xml version="1.0" standalone="no"?><!DOCTYPE svg PUBLIC "-//W3C//DTD SVG 1.1//EN" "http://www.w3.org/Graphics/SVG/1.1/DTD/svg11.dtd"><svg height="1024" node-id="1" sillyvg="true" template-height="1024" template-width="1024" version="1.1" viewBox="0 0 1024 1024" width="1024" xmlns="http://www.w3.org/2000/svg" xmlns:xlink="http://www.w3.org/1999/xlink"><defs node-id="24"></defs><g node-id="130"><path d="M 220.40 216.50 L 216.90 213.80 L 214.30 211.30 L 212.50 208.90 L 211.30 206.70 L 210.60 204.30 L 210.50 201.80 L 210.90 199.40 L 212.00 196.80 L 215.30 192.10 L 220.90 186.70 L 226.00 182.90 L 231.10 179.60 L 236.40 176.70 L 241.80 174.30 L 247.40 172.30 L 253.00 170.80 L 258.70 169.70 L 264.40 169.20 L 270.10 169.10 L 275.80 169.50 L 281.50 170.50 L 287.30 172.00 L 292.80 173.90 L 298.30 176.50 L 303.70 179.60 L 309.10 183.30 L 313.10 186.60 L 324.00 197.40 L 335.30 192.00 L 345.60 188.50 L 355.70 186.30 L 363.40 185.30 L 371.40 184.70 L 389.00 184.50 L 509.70 184.40 L 519.60 184.70 L 529.50 185.40 L 536.00 186.30 L 542.50 187.60 L 549.00 189.30 L 556.40 191.90 L 563.70 194.90 L 570.70 198.50 L 577.50 202.60 L 584.00 207.10 L 590.10 212.10 L 596.00 217.40 L 601.50 223.10 L 606.60 229.20 L 611.20 235.60 L 615.40 242.30 L 619.10 249.20 L 622.30 256.40 L 625.00 263.80 L 627.00 271.40 L 628.60 279.20 L 629.40 287.10 L 629.70 295.10 L 629.00 311.10 L 623.40 381.30 L 628.30 382.40 L 633.10 383.90 L 637.60 385.70 L 641.90 388.00 L 645.80 390.70 L 649.30 393.70 L 652.50 397.10 L 655.20 400.80 L 657.50 405.00 L 659.80 411.70 L 660.70 419.50 L 672.80 419.30 L 684.70 418.70 L 696.50 417.60 L 705.30 416.40 L 713.90 414.80 L 722.40 412.80 L 730.70 410.50 L 738.80 407.60 L 746.70 404.30 L 754.40 400.50 L 761.90 396.10 L 767.60 392.30 L 773.20 388.10 L 778.60 383.40 L 783.90 378.30 L 791.80 369.80 L 794.70 367.40 L 797.90 365.30 L 801.20 363.60 L 808.30 361.30 L 815.60 360.40 L 820.60 360.60 L 825.50 361.30 L 830.40 362.60 L 835.10 364.50 L 839.50 366.90 L 843.60 369.80 L 846.50 372.30 L 851.30 378.10 L 853.40 381.40 L 857.10 390.00 L 859.30 396.00 L 864.20 411.50 L 866.50 420.20 L 870.40 438.40 L 871.70 447.50 L 872.30 456.00 L 872.10 466.80 L 871.50 471.50 L 869.60 477.90 L 866.80 482.80 L 865.00 484.70 L 862.90 486.30 L 860.40 487.40 L 857.50 488.20 L 854.40 487.00 L 852.00 485.70 L 850.20 484.20 L 848.60 482.50 L 846.30 478.30 L 845.20 474.50 L 844.40 470.00 L 843.40 459.50 L 841.50 444.90 L 838.80 428.40 L 837.10 420.10 L 833.20 405.00 L 831.10 399.10 L 829.30 395.40 L 827.70 392.70 L 826.10 390.90 L 823.90 389.30 L 821.70 388.20 L 819.70 387.70 L 817.50 387.60 L 815.50 388.00 L 813.40 388.70 L 809.70 391.10 L 805.80 395.50 L 804.00 398.60 L 807.90 410.20 L 811.30 421.90 L 814.30 433.80 L 816.90 445.80 L 819.00 457.90 L 820.70 470.00 L 822.20 485.90 L 823.10 501.70 L 823.30 517.40 L 823.00 529.10 L 822.30 540.80 L 821.20 552.50 L 819.70 564.10 L 817.70 575.60 L 815.20 587.10 L 812.20 598.60 L 804.90 621.80 L 804.00 625.80 L 805.00 629.30 L 806.40 632.10 L 808.20 634.30 L 810.30 636.10 L 812.60 637.20 L 815.00 637.80 L 817.60 637.80 L 820.10 637.30 L 822.70 636.10 L 825.10 634.50 L 827.20 632.20 L 829.30 629.10 L 831.00 625.50 L 834.40 614.40 L 839.00 592.90 L 843.40 565.00 L 844.60 555.20 L 845.30 539.10 L 845.80 535.10 L 846.70 531.40 L 847.50 529.10 L 850.20 525.00 L 851.90 523.30 L 854.20 521.90 L 857.50 520.60 L 861.10 520.70 L 864.00 521.30 L 866.50 522.40 L 868.70 524.00 L 870.50 525.90 L 871.90 528.30 L 872.80 530.90 L 873.40 533.80 L 873.60 537.20 L 872.90 550.50 L 869.60 577.40 L 864.40 606.60 L 860.40 623.50 L 858.20 630.80 L 856.20 636.00 L 853.90 640.70 L 851.40 644.90 L 848.60 648.70 L 845.70 651.90 L 842.50 655.00 L 839.10 657.60 L 835.60 659.70 L 832.00 661.50 L 828.30 662.90 L 820.60 664.50 L 812.80 664.50 L 809.00 663.90 L 805.10 662.90 L 801.30 661.50 L 797.70 659.70 L 794.20 657.50 L 790.80 654.90 L 787.50 651.80 L 784.50 648.50 L 781.70 644.70 L 779.10 640.50 L 776.70 635.70 L 767.10 629.10 L 749.50 618.50 L 734.90 611.10 L 727.40 607.90 L 719.90 605.20 L 712.50 602.90 L 712.20 617.70 L 712.50 622.50 L 717.50 623.40 L 722.10 624.70 L 726.30 626.30 L 733.90 630.50 L 740.30 635.60 L 743.00 638.60 L 746.20 642.80 L 748.80 647.30 L 750.80 652.10 L 752.30 657.10 L 753.10 662.10 L 753.30 667.20 L 752.40 674.80 L 750.00 682.30 L 746.30 689.30 L 740.90 695.80 L 737.70 698.70 L 734.10 701.40 L 730.10 703.90 L 725.50 706.20 L 725.60 734.80 L 725.30 741.50 L 724.30 747.90 L 723.20 752.00 L 721.70 756.20 L 719.60 760.30 L 717.10 764.20 L 713.90 768.20 L 709.90 772.30 L 705.80 775.70 L 702.00 778.50 L 698.30 780.60 L 691.30 783.50 L 687.70 784.40 L 680.90 785.00 L 676.40 784.60 L 671.80 783.80 L 667.20 782.60 L 660.40 780.20 L 638.80 771.10 L 594.40 755.00 L 594.20 767.00 L 595.30 816.50 L 596.30 831.00 L 596.10 838.60 L 594.90 843.90 L 593.90 846.30 L 592.40 848.50 L 590.40 850.50 L 588.10 852.10 L 585.00 853.50 L 581.10 854.70 L 575.20 852.60 L 571.20 849.90 L 569.60 848.10 L 568.30 846.00 L 566.50 841.10 L 565.90 837.90 L 566.40 828.50 L 564.80 745.80 L 564.90 735.50 L 565.40 730.10 L 566.30 727.90 L 567.50 726.20 L 568.90 724.80 L 570.60 723.70 L 573.10 722.70 L 576.00 722.10 L 579.40 722.00 L 584.60 722.40 L 590.30 723.50 L 596.00 725.10 L 601.60 726.90 L 619.50 733.80 L 622.60 724.20 L 625.30 714.50 L 627.60 704.60 L 629.30 694.60 L 630.40 684.60 L 630.90 674.50 L 623.80 671.30 L 616.20 668.40 L 607.90 665.70 L 595.30 662.20 L 581.90 659.10 L 540.70 650.60 L 527.40 647.50 L 518.60 645.20 L 502.50 640.10 L 499.70 645.50 L 497.50 649.30 L 495.00 652.60 L 492.80 654.80 L 490.50 656.70 L 479.50 663.30 L 475.80 665.90 L 472.00 670.20 L 469.80 672.00 L 466.30 673.60 L 458.90 675.70 L 455.00 676.10 L 449.70 676.20 L 444.40 675.70 L 439.00 674.60 L 433.80 673.00 L 428.70 670.90 L 423.70 668.30 L 418.90 665.30 L 414.60 661.90 L 410.50 658.10 L 406.90 653.90 L 403.80 649.50 L 401.20 644.90 L 382.50 649.20 L 353.60 654.90 L 334.90 659.30 L 326.20 661.90 L 321.20 664.20 L 317.20 666.80 L 313.80 669.50 L 310.90 672.60 L 308.50 675.90 L 306.60 679.50 L 303.90 687.10 L 303.10 691.20 L 302.30 697.60 L 302.00 704.30 L 302.00 755.00 L 311.50 754.80 L 345.10 755.00 L 344.90 738.80 L 345.20 729.60 L 345.90 725.20 L 347.10 721.40 L 348.30 719.10 L 349.70 717.10 L 351.50 715.50 L 353.60 714.20 L 356.20 713.40 L 359.40 713.10 L 362.20 713.40 L 364.70 714.30 L 367.00 715.60 L 373.20 721.00 L 373.70 728.00 L 373.20 752.00 L 373.20 837.90 L 372.80 841.60 L 372.00 844.70 L 370.80 847.30 L 369.20 849.60 L 367.50 851.50 L 365.50 853.00 L 363.40 854.10 L 361.20 854.70 L 358.90 855.00 L 356.60 854.80 L 354.40 854.20 L 352.30 853.20 L 350.40 851.80 L 348.70 849.90 L 347.20 847.50 L 346.20 844.90 L 345.40 841.70 L 345.10 837.90 L 345.10 783.70 L 336.90 783.50 L 302.00 783.70 L 302.20 833.30 L 301.60 841.00 L 300.80 843.90 L 299.60 846.60 L 298.00 849.20 L 296.20 851.30 L 294.10 853.00 L 291.80 854.20 L 289.30 854.90 L 286.60 855.00 L 284.70 854.70 L 280.50 852.70 L 278.20 850.80 L 276.40 848.70 L 275.00 846.30 L 274.00 843.50 L 273.10 839.00 L 272.70 834.00 L 273.40 815.30 L 273.50 707.80 L 274.80 690.40 L 276.10 682.40 L 277.70 675.40 L 279.60 669.40 L 283.60 661.00 L 288.60 654.00 L 294.70 648.10 L 302.20 642.80 L 307.70 639.90 L 314.10 637.20 L 321.40 634.50 L 337.20 630.00 L 379.30 620.50 L 396.70 617.20 L 400.70 616.10 L 403.10 615.10 L 405.10 613.90 L 406.70 612.30 L 408.00 610.50 L 409.00 608.10 L 409.80 604.90 L 410.10 601.70 L 409.90 592.00 L 405.50 589.50 L 391.40 583.30 L 382.30 578.90 L 374.00 574.30 L 366.30 569.50 L 359.30 564.50 L 352.50 559.10 L 346.20 553.50 L 340.40 547.60 L 335.00 541.50 L 330.00 535.00 L 325.30 528.30 L 320.80 521.10 L 316.60 513.70 L 311.50 503.50 L 306.60 492.50 L 302.00 480.70 L 295.90 480.40 L 290.30 479.60 L 285.20 478.50 L 280.40 476.90 L 275.80 474.90 L 271.50 472.50 L 267.70 469.90 L 264.20 466.90 L 260.90 463.60 L 258.10 460.20 L 253.30 452.60 L 250.90 447.20 L 249.10 441.60 L 247.90 435.90 L 247.30 430.00 L 247.40 424.20 L 248.00 418.50 L 248.90 414.20 L 251.80 406.20 L 253.70 402.40 L 256.00 398.70 L 258.70 395.40 L 261.70 392.20 L 265.10 389.30 L 268.80 386.80 L 272.80 384.60 L 277.30 382.80 L 282.20 381.30 L 278.80 362.60 L 277.40 356.30 L 275.60 350.30 L 273.40 344.40 L 269.90 351.30 L 266.20 357.70 L 262.30 363.60 L 258.00 369.20 L 248.60 379.50 L 238.60 388.30 L 231.50 393.50 L 224.40 398.00 L 217.20 401.80 L 209.90 405.20 L 202.80 407.90 L 195.90 409.90 L 188.90 411.50 L 182.50 412.40 L 176.60 412.80 L 168.10 412.20 L 161.40 410.40 L 158.30 409.00 L 155.80 407.30 L 153.80 405.30 L 152.20 403.10 L 151.20 400.60 L 150.60 397.80 L 150.60 394.60 L 151.20 390.80 L 152.00 388.90 L 153.30 387.00 L 155.10 385.20 L 158.20 382.70 L 171.10 374.30 L 177.10 369.30 L 180.00 366.30 L 182.60 363.00 L 185.00 359.20 L 187.20 354.80 L 189.00 350.20 L 190.30 344.70 L 191.20 338.40 L 191.50 333.70 L 191.10 322.50 L 190.30 315.80 L 189.30 310.10 L 183.30 287.90 L 182.30 282.20 L 181.60 273.70 L 181.90 263.80 L 182.50 258.90 L 184.60 251.20 L 187.40 246.30 L 189.20 244.30 L 191.20 242.70 L 193.70 241.50 L 196.30 240.90 L 199.40 240.90 L 203.10 241.50 L 205.80 243.10 L 207.80 244.90 L 209.30 246.90 L 211.30 251.30 L 211.80 253.80 L 212.10 257.60 L 211.40 273.90 L 211.70 277.70 L 214.20 291.30 L 218.80 310.60 L 219.90 317.30 L 220.60 326.80 L 220.50 332.00 L 219.10 342.60 L 218.00 347.40 L 212.80 365.80 L 211.50 371.80 L 217.00 368.50 L 222.20 364.70 L 227.00 360.50 L 231.50 355.80 L 235.70 350.90 L 239.60 345.50 L 246.40 334.10 L 249.40 328.10 L 253.30 318.80 L 256.70 309.50 L 259.60 300.10 L 262.00 291.00 L 269.30 260.50 L 273.40 248.60 L 275.90 243.00 L 279.10 237.40 L 282.70 231.90 L 287.30 225.80 L 292.60 219.60 L 299.30 212.50 L 291.00 205.50 L 284.20 201.20 L 280.60 199.50 L 274.10 197.60 L 271.20 197.30 L 267.20 197.30 L 263.50 197.80 L 259.90 198.70 L 254.70 200.80 L 249.70 203.40 L 235.20 212.20 L 230.40 214.40 L 227.20 215.60 L 223.80 216.30 L 220.40 216.50 Z M 535.40 316.00 L 532.90 303.80 L 523.60 309.80 L 514.20 315.20 L 504.90 320.00 L 495.50 324.20 L 485.90 328.00 L 476.10 331.30 L 466.20 334.00 L 456.20 336.30 L 446.00 338.10 L 435.60 339.40 L 424.90 340.20 L 414.00 340.60 L 380.50 340.40 L 366.90 340.90 L 358.30 342.30 L 354.40 343.50 L 350.90 345.20 L 347.70 347.20 L 344.90 349.80 L 342.30 353.00 L 339.70 357.10 L 337.60 361.30 L 335.50 366.70 L 333.40 373.30 L 330.60 383.80 L 327.80 397.50 L 326.00 407.90 L 324.80 418.10 L 324.10 428.00 L 323.90 437.60 L 324.30 445.40 L 325.00 453.00 L 326.20 460.60 L 327.80 468.10 L 329.80 475.50 L 332.30 482.70 L 335.20 490.00 L 338.80 497.20 L 342.80 504.50 L 347.50 511.90 L 351.80 517.80 L 356.40 523.40 L 361.20 528.70 L 366.20 533.60 L 371.60 538.20 L 378.60 543.50 L 385.90 548.30 L 393.50 552.60 L 401.40 556.30 L 409.50 559.60 L 417.70 562.30 L 426.20 564.50 L 434.80 566.10 L 443.50 567.30 L 452.20 567.90 L 460.90 568.00 L 469.70 567.50 L 478.50 566.50 L 487.10 565.00 L 495.60 562.90 L 504.10 560.20 L 512.30 557.10 L 520.40 553.40 L 528.20 549.10 L 535.80 544.20 L 544.00 538.30 L 549.00 533.60 L 551.10 531.10 L 555.40 527.30 L 559.50 522.80 L 563.00 518.20 L 563.20 506.70 L 563.00 464.30 L 563.80 452.50 L 565.50 444.00 L 566.80 440.10 L 568.50 436.40 L 570.50 433.00 L 573.00 430.00 L 576.00 427.20 L 579.70 424.70 L 583.70 422.70 L 588.60 420.90 L 594.40 419.50 L 594.10 407.50 L 594.40 395.50 L 584.90 391.30 L 576.40 385.80 L 571.20 381.50 L 566.30 376.80 L 561.80 371.60 L 557.60 366.10 L 553.80 360.30 L 550.30 354.30 L 544.20 341.70 L 538.20 325.60 L 535.40 316.00 Z M 787.40 435.60 L 784.80 424.90 L 781.50 414.40 L 763.90 424.60 L 748.30 432.10 L 733.80 437.60 L 719.70 441.50 L 712.90 442.90 L 702.40 444.30 L 691.60 445.30 L 668.30 445.90 L 641.50 446.00 L 641.50 571.00 L 670.70 571.20 L 683.40 571.70 L 701.90 573.30 L 715.60 575.70 L 728.80 579.40 L 742.20 584.40 L 756.80 591.30 L 768.30 597.50 L 781.50 605.30 L 783.90 598.70 L 785.80 592.00 L 788.50 581.50 L 790.70 571.00 L 792.50 560.60 L 793.80 550.30 L 794.80 539.90 L 795.40 527.00 L 795.60 514.00 L 795.30 501.00 L 794.50 487.90 L 792.70 470.60 L 790.40 453.20 L 787.40 435.60 Z M 614.30 446.00 L 613.80 445.20 L 606.70 444.90 L 602.90 445.20 L 596.90 446.70 L 593.10 449.10 L 591.60 450.80 L 590.50 452.90 L 589.80 455.40 L 589.50 463.30 L 589.90 487.20 L 589.80 554.50 L 590.40 558.30 L 591.30 561.30 L 592.40 563.60 L 593.80 565.70 L 595.50 567.30 L 597.50 568.60 L 602.10 570.20 L 609.20 570.90 L 614.30 571.00 L 614.20 481.90 L 614.50 454.90 L 614.30 446.00 Z M 685.00 597.90 L 659.70 597.90 L 659.60 654.50 L 658.90 672.60 L 658.10 684.60 L 656.80 696.50 L 654.90 708.30 L 653.20 717.10 L 651.00 725.90 L 648.50 734.70 L 645.50 743.50 L 652.70 747.70 L 661.80 752.30 L 666.60 754.40 L 674.10 756.90 L 679.00 757.60 L 684.80 757.00 L 689.10 755.30 L 691.50 753.50 L 693.60 751.40 L 695.20 748.90 L 697.50 743.20 L 698.20 739.90 L 698.80 734.80 L 699.10 729.50 L 698.60 709.90 L 692.60 710.00 L 686.40 709.30 L 684.50 708.70 L 681.10 706.70 L 679.50 705.00 L 678.20 702.90 L 677.20 700.60 L 676.40 695.60 L 676.50 693.00 L 677.00 690.60 L 678.00 688.40 L 679.50 686.40 L 682.80 684.20 L 685.10 683.50 L 692.90 682.50 L 706.40 682.20 L 710.70 681.70 L 713.60 681.20 L 718.40 679.50 L 720.50 678.20 L 722.30 676.50 L 723.70 674.40 L 724.70 672.00 L 725.40 669.10 L 725.50 665.30 L 725.10 661.40 L 724.40 658.40 L 723.30 656.20 L 721.80 654.20 L 720.10 652.60 L 718.10 651.50 L 714.80 650.30 L 711.00 649.70 L 699.20 648.70 L 695.60 648.10 L 691.20 646.40 L 689.40 645.10 L 687.90 643.50 L 686.70 641.40 L 685.80 638.60 L 684.80 629.70 L 684.60 618.60 L 685.00 597.90 Z M 492.90 631.20 L 489.80 627.30 L 487.50 623.40 L 485.90 619.60 L 484.60 615.50 L 483.30 607.00 L 483.20 593.30 L 474.90 594.10 L 467.40 594.50 L 445.40 594.60 L 437.70 595.00 L 437.40 606.40 L 436.70 611.20 L 435.80 615.70 L 434.30 620.00 L 432.30 624.50 L 429.70 628.90 L 426.20 634.20 L 428.80 637.50 L 431.50 640.10 L 434.40 642.20 L 437.40 643.90 L 440.60 645.20 L 443.90 646.10 L 449.10 646.90 L 454.60 647.10 L 466.00 646.60 L 468.30 647.60 L 471.60 650.00 L 473.80 653.30 L 475.40 658.30 L 476.10 661.90 L 481.20 658.70 L 485.70 655.20 L 489.70 651.40 L 493.30 647.30 L 496.70 642.80 L 499.90 637.70 L 492.90 631.20 Z M 370.50 212.50 L 364.50 213.30 L 358.60 214.60 L 352.70 216.20 L 346.80 218.20 L 335.60 223.40 L 325.00 229.90 L 320.10 233.70 L 315.50 237.80 L 311.30 242.10 L 307.40 246.80 L 303.90 251.70 L 300.80 256.80 L 298.30 262.20 L 296.20 267.90 L 294.70 273.70 L 293.70 279.70 L 293.40 285.90 L 293.70 292.50 L 295.40 305.10 L 297.80 320.10 L 303.90 350.80 L 306.90 363.20 L 309.60 355.70 L 312.40 349.10 L 315.40 343.50 L 318.30 338.70 L 321.80 334.00 L 325.40 329.90 L 329.00 326.50 L 332.80 323.60 L 336.80 321.10 L 341.10 318.90 L 345.50 317.20 L 350.00 315.80 L 356.30 314.40 L 362.90 313.40 L 369.80 312.80 L 380.50 312.40 L 416.30 312.30 L 434.10 311.10 L 443.10 309.90 L 452.10 308.30 L 461.00 306.30 L 469.90 303.80 L 478.60 300.90 L 487.10 297.60 L 495.40 293.80 L 503.40 289.50 L 511.00 284.70 L 518.40 279.50 L 538.40 263.40 L 540.40 262.40 L 542.80 261.70 L 545.40 261.50 L 547.60 261.70 L 549.50 262.30 L 551.10 263.20 L 552.50 264.60 L 554.10 266.80 L 555.50 269.70 L 556.80 273.30 L 558.20 279.10 L 561.90 301.90 L 563.50 310.30 L 565.60 319.00 L 569.40 330.50 L 571.90 336.20 L 574.70 341.70 L 578.10 346.90 L 582.10 352.00 L 585.30 355.60 L 588.90 358.90 L 593.00 362.10 L 597.50 365.20 L 597.70 353.70 L 601.00 308.70 L 601.20 297.90 L 600.90 290.70 L 600.20 283.60 L 598.90 276.70 L 596.00 266.50 L 594.00 261.50 L 591.50 256.50 L 588.60 251.70 L 585.20 247.00 L 581.20 242.20 L 576.60 237.40 L 571.70 233.10 L 566.90 229.30 L 562.10 226.10 L 557.30 223.40 L 550.60 220.30 L 543.70 217.80 L 536.80 216.00 L 529.70 214.60 L 522.40 213.60 L 503.40 212.60 L 491.20 212.50 L 370.50 212.50 Z M 287.60 408.80 L 284.60 410.90 L 280.00 415.50 L 278.30 418.00 L 275.90 423.40 L 275.20 429.00 L 275.90 434.60 L 278.30 440.10 L 279.90 442.70 L 284.60 447.40 L 287.60 449.60 L 291.80 451.10 L 296.30 452.00 L 294.20 438.70 L 290.70 419.40 L 289.00 412.10 L 287.60 408.80 Z M 623.40 408.80 L 621.90 414.10 L 621.20 419.50 L 623.70 419.50 L 627.30 420.30 L 632.50 423.60 L 632.70 419.10 L 631.50 415.30 L 629.00 412.10 L 625.50 409.80 L 623.40 408.80 Z M 561.30 559.30 L 553.80 565.30 L 545.80 570.90 L 534.50 577.60 L 522.70 583.10 L 510.50 587.40 L 510.80 596.80 L 511.40 603.20 L 512.10 607.20 L 513.10 610.10 L 514.30 612.40 L 515.90 614.30 L 517.80 615.80 L 520.20 617.00 L 524.20 618.40 L 560.90 625.60 L 578.30 629.60 L 594.40 634.20 L 600.80 635.30 L 607.20 636.90 L 632.50 644.90 L 632.50 597.90 L 616.10 597.70 L 608.00 597.30 L 600.30 596.50 L 595.30 595.60 L 590.50 594.20 L 582.70 591.00 L 576.70 586.90 L 573.80 584.30 L 571.40 581.50 L 569.00 578.20 L 566.80 574.30 L 564.80 569.90 L 562.40 561.10 L 561.30 559.30 Z" fill="#000000" fill-rule="nonzero" group-id="1" node-id="28" stroke="none" target-height="685.9" target-width="723" target-x="150.6" target-y="169.1"></path></g><g node-id="131"><path d="M 220.40 216.50 L 223.80 216.30 L 227.20 215.60 L 230.40 214.40 L 235.20 212.20 L 249.70 203.40 L 254.70 200.80 L 259.90 198.70 L 263.50 197.80 L 267.20 197.30 L 271.20 197.30 L 274.10 197.60 L 280.60 199.50 L 284.20 201.20 L 291.00 205.50 L 299.30 212.50 L 292.60 219.60 L 287.30 225.80 L 282.70 231.90 L 279.10 237.40 L 275.90 243.00 L 273.40 248.60 L 269.30 260.50 L 259.60 300.10 L 256.70 309.50 L 253.30 318.80 L 249.40 328.10 L 243.10 339.90 L 239.60 345.50 L 235.70 350.90 L 231.50 355.80 L 227.00 360.50 L 222.20 364.70 L 217.00 368.50 L 211.50 371.80 L 212.80 365.80 L 218.00 347.40 L 219.10 342.60 L 220.50 332.00 L 220.40 321.90 L 218.80 310.60 L 214.20 291.30 L 211.70 277.70 L 211.40 273.90 L 212.10 257.60 L 211.30 251.30 L 209.30 246.90 L 207.80 244.90 L 205.80 243.10 L 203.10 241.50 L 206.60 234.60 L 210.50 228.10 L 213.40 224.00 L 216.70 220.10 L 220.40 216.50 Z" fill="#706f70" fill-rule="nonzero" group-id="2" node-id="33" stroke="none" target-height="174.49998" target-width="96.19998" target-x="203.1" target-y="197.3"></path></g><g node-id="132"><path d="M 306.90 363.20 L 303.90 350.80 L 300.70 335.80 L 295.40 305.10 L 293.70 292.50 L 293.40 285.90 L 293.70 279.70 L 294.70 273.70 L 296.20 267.90 L 298.30 262.20 L 300.80 256.80 L 303.90 251.70 L 307.40 246.80 L 311.30 242.10 L 315.50 237.80 L 320.10 233.70 L 325.00 229.90 L 330.20 226.50 L 341.10 220.60 L 352.70 216.20 L 358.60 214.60 L 364.50 213.30 L 370.50 212.50 L 491.20 212.50 L 503.40 212.60 L 522.40 213.60 L 529.70 214.60 L 536.80 216.00 L 543.70 217.80 L 550.60 220.30 L 557.30 223.40 L 562.10 226.10 L 566.90 229.30 L 571.70 233.10 L 576.60 237.40 L 581.20 242.20 L 585.20 247.00 L 588.60 251.70 L 591.50 256.50 L 594.00 261.50 L 597.70 271.60 L 598.90 276.70 L 600.20 283.60 L 600.90 290.70 L 601.20 297.90 L 601.00 308.70 L 598.30 342.30 L 597.70 353.70 L 597.50 365.20 L 593.00 362.10 L 588.90 358.90 L 585.30 355.60 L 582.10 352.00 L 578.10 346.90 L 574.70 341.70 L 571.90 336.20 L 569.40 330.50 L 565.60 319.00 L 563.50 310.30 L 561.90 301.90 L 558.20 279.10 L 556.80 273.30 L 555.50 269.70 L 554.10 266.80 L 552.50 264.60 L 551.10 263.20 L 549.50 262.30 L 547.60 261.70 L 545.40 261.50 L 542.80 261.70 L 540.40 262.40 L 538.40 263.40 L 518.40 279.50 L 511.00 284.70 L 503.40 289.50 L 495.40 293.80 L 487.10 297.60 L 478.60 300.90 L 469.90 303.80 L 461.00 306.30 L 452.10 308.30 L 443.10 309.90 L 434.10 311.10 L 416.30 312.30 L 380.50 312.40 L 369.80 312.80 L 362.90 313.40 L 356.30 314.40 L 350.00 315.80 L 345.50 317.20 L 341.10 318.90 L 336.80 321.10 L 332.80 323.60 L 329.00 326.50 L 325.40 329.90 L 321.80 334.00 L 318.30 338.70 L 315.40 343.50 L 312.40 349.10 L 309.60 355.70 L 306.90 363.20 Z" fill="#706f70" fill-rule="nonzero" group-id="3" node-id="38" stroke="none" target-height="152.70001" target-width="307.80002" target-x="293.4" target-y="212.5"></path></g><g node-id="133"><path d="M 532.90 303.80 L 535.40 316.00 L 538.20 325.60 L 541.60 335.30 L 547.10 348.10 L 550.30 354.30 L 553.80 360.30 L 557.60 366.10 L 561.80 371.60 L 566.30 376.80 L 571.20 381.50 L 576.40 385.80 L 584.90 391.30 L 594.40 395.50 L 594.10 407.50 L 594.40 419.50 L 588.60 420.90 L 583.70 422.70 L 579.70 424.70 L 576.00 427.20 L 573.00 430.00 L 570.50 433.00 L 568.50 436.40 L 566.80 440.10 L 565.50 444.00 L 563.80 452.50 L 563.00 464.30 L 563.20 506.70 L 563.00 518.20 L 559.50 522.80 L 555.40 527.30 L 551.10 531.10 L 546.60 536.00 L 541.20 540.40 L 535.80 544.20 L 528.20 549.10 L 520.40 553.40 L 512.30 557.10 L 504.10 560.20 L 495.60 562.90 L 487.10 565.00 L 478.50 566.50 L 469.70 567.50 L 460.90 568.00 L 452.20 567.90 L 443.50 567.30 L 434.80 566.10 L 426.20 564.50 L 417.70 562.30 L 409.50 559.60 L 401.40 556.30 L 393.50 552.60 L 385.90 548.30 L 378.60 543.50 L 371.60 538.20 L 366.20 533.60 L 361.20 528.70 L 356.40 523.40 L 351.80 517.80 L 347.50 511.90 L 342.80 504.50 L 338.80 497.20 L 335.20 490.00 L 332.30 482.70 L 329.80 475.50 L 327.80 468.10 L 326.20 460.60 L 325.00 453.00 L 324.30 445.40 L 323.90 437.60 L 324.10 428.00 L 324.80 418.10 L 326.00 407.90 L 327.80 397.50 L 330.60 383.80 L 333.40 373.30 L 335.50 366.70 L 337.60 361.30 L 339.70 357.10 L 342.30 353.00 L 344.90 349.80 L 347.70 347.20 L 350.90 345.20 L 354.40 343.50 L 358.30 342.30 L 366.90 340.90 L 380.50 340.40 L 414.00 340.60 L 424.90 340.20 L 435.60 339.40 L 446.00 338.10 L 456.20 336.30 L 466.20 334.00 L 476.10 331.30 L 485.90 328.00 L 495.50 324.20 L 504.90 320.00 L 514.20 315.20 L 523.60 309.80 L 532.90 303.80 Z M 399.30 389.00 L 396.50 390.30 L 394.10 392.00 L 392.10 394.20 L 390.40 396.70 L 389.00 399.50 L 388.00 402.60 L 387.10 409.00 L 387.10 412.30 L 387.60 415.50 L 388.40 418.50 L 389.60 421.30 L 391.20 423.80 L 393.20 425.90 L 395.50 427.70 L 399.60 429.20 L 402.10 429.50 L 404.90 429.40 L 407.60 428.00 L 409.90 426.10 L 412.00 423.90 L 413.60 421.30 L 414.90 418.50 L 415.90 415.40 L 416.50 412.20 L 416.60 405.90 L 416.10 402.70 L 414.10 397.10 L 412.50 394.60 L 410.60 392.50 L 408.30 390.80 L 406.50 389.90 L 402.00 389.00 L 399.30 389.00 Z M 513.30 389.00 L 510.40 390.30 L 508.00 392.10 L 505.90 394.30 L 504.20 396.90 L 502.90 399.70 L 501.90 402.90 L 501.30 406.10 L 501.20 412.60 L 501.70 415.90 L 502.60 418.90 L 503.90 421.70 L 505.50 424.20 L 507.60 426.30 L 510.00 427.90 L 514.10 429.40 L 516.60 429.60 L 519.50 429.40 L 522.20 428.00 L 524.50 426.20 L 526.50 424.00 L 528.20 421.40 L 529.50 418.70 L 530.40 415.60 L 531.20 409.20 L 531.00 406.00 L 530.50 402.80 L 528.40 397.10 L 526.80 394.60 L 524.80 392.60 L 522.50 390.90 L 520.60 389.90 L 516.00 389.00 L 513.30 389.00 Z M 464.30 460.70 L 453.80 462.00 L 443.10 464.60 L 438.00 466.50 L 433.20 469.00 L 430.20 470.90 L 425.10 475.80 L 421.30 481.50 L 419.10 487.80 L 418.30 492.30 L 418.10 496.80 L 418.50 501.60 L 419.40 506.20 L 420.80 510.90 L 422.70 515.50 L 425.00 519.90 L 427.70 524.10 L 430.80 528.10 L 434.30 531.80 L 438.00 535.00 L 442.10 537.90 L 446.50 540.30 L 451.10 542.10 L 455.90 543.40 L 466.40 543.40 L 472.80 542.30 L 478.70 539.90 L 481.70 538.00 L 484.60 535.60 L 488.20 532.00 L 491.40 528.00 L 494.20 523.70 L 496.60 519.10 L 498.50 514.30 L 500.00 509.40 L 501.10 504.40 L 501.70 499.40 L 501.90 494.50 L 501.60 489.50 L 500.80 484.90 L 499.50 480.50 L 497.70 476.30 L 495.40 472.50 L 492.60 469.10 L 490.20 466.90 L 487.50 464.90 L 484.40 463.30 L 481.00 461.90 L 477.50 461.00 L 473.60 460.50 L 469.20 460.40 L 464.30 460.70 Z" fill="#ffcdaa" fill-rule="nonzero" group-id="4" node-id="43" stroke="none" target-height="264.2" target-width="270.50003" target-x="323.9" target-y="303.8"></path></g><g node-id="134"><path d="M 844.40 470.00 L 820.70 470.00 L 819.00 457.90 L 816.90 445.80 L 814.30 433.80 L 811.30 421.90 L 807.90 410.20 L 804.00 398.60 L 805.80 395.50 L 809.70 391.10 L 813.40 388.70 L 815.50 388.00 L 817.50 387.60 L 819.70 387.70 L 821.70 388.20 L 823.90 389.30 L 826.10 390.90 L 827.70 392.70 L 829.30 395.40 L 831.10 399.10 L 833.20 405.00 L 837.10 420.10 L 838.80 428.40 L 841.50 444.90 L 843.40 459.50 L 844.40 470.00 Z" fill="#b5f2f7" fill-rule="nonzero" group-id="5" node-id="48" stroke="none" target-height="82.399994" target-width="40.400024" target-x="804" target-y="387.6"></path></g><g node-id="135"><path d="M 404.90 429.40 L 402.10 429.50 L 397.50 428.60 L 395.50 427.70 L 393.20 425.90 L 391.20 423.80 L 389.60 421.30 L 388.40 418.50 L 387.60 415.50 L 387.10 412.30 L 387.30 405.80 L 389.00 399.50 L 390.40 396.70 L 392.10 394.20 L 394.10 392.00 L 396.50 390.30 L 399.30 389.00 L 402.00 389.00 L 404.40 389.30 L 408.30 390.80 L 410.60 392.50 L 412.50 394.60 L 414.10 397.10 L 416.10 402.70 L 416.60 405.90 L 416.50 412.20 L 414.90 418.50 L 413.60 421.30 L 412.00 423.90 L 409.90 426.10 L 407.60 428.00 L 404.90 429.40 Z" fill="#000000" fill-rule="nonzero" group-id="6" node-id="53" stroke="none" target-height="40.5" target-width="29.5" target-x="387.1" target-y="389"></path></g><g node-id="136"><path d="M 519.50 429.40 L 516.60 429.60 L 511.90 428.80 L 510.00 427.90 L 507.60 426.30 L 505.50 424.20 L 503.90 421.70 L 502.60 418.90 L 501.70 415.90 L 501.20 412.60 L 501.30 406.10 L 502.90 399.70 L 504.20 396.90 L 505.90 394.30 L 508.00 392.10 L 510.40 390.30 L 513.30 389.00 L 516.00 389.00 L 518.40 389.30 L 522.50 390.90 L 524.80 392.60 L 526.80 394.60 L 528.40 397.10 L 529.60 399.90 L 530.50 402.80 L 531.00 406.00 L 531.00 412.40 L 529.50 418.70 L 528.20 421.40 L 526.50 424.00 L 524.50 426.20 L 522.20 428.00 L 519.50 429.40 Z" fill="#000000" fill-rule="nonzero" group-id="7" node-id="58" stroke="none" target-height="40.600006" target-width="29.799988" target-x="501.2" target-y="389"></path></g><g node-id="137"><path d="M 287.60 449.60 L 282.00 445.10 L 278.30 440.10 L 275.90 434.60 L 275.20 429.00 L 275.90 423.40 L 278.30 418.00 L 282.10 413.10 L 287.60 408.80 L 289.00 412.10 L 290.70 419.40 L 294.20 438.70 L 296.30 452.00 L 291.80 451.10 L 287.60 449.60 Z" fill="#ffcdaa" fill-rule="nonzero" group-id="8" node-id="63" stroke="none" target-height="43.200012" target-width="21.099976" target-x="275.2" target-y="408.8"></path></g><g node-id="138"><path d="M 787.40 435.60 L 790.40 453.20 L 792.70 470.60 L 794.50 487.90 L 795.30 501.00 L 795.60 514.00 L 795.40 527.00 L 794.80 539.90 L 793.80 550.30 L 792.50 560.60 L 790.70 571.00 L 788.50 581.50 L 785.80 592.00 L 779.30 589.20 L 754.70 575.90 L 733.40 566.90 L 724.00 563.50 L 715.60 560.90 L 707.40 558.80 L 699.40 557.20 L 691.40 556.10 L 682.90 555.30 L 664.20 554.60 L 641.50 554.50 L 641.50 466.50 L 668.80 466.50 L 691.50 465.90 L 701.80 465.10 L 718.00 462.80 L 731.30 459.60 L 737.90 457.60 L 752.70 452.30 L 764.40 447.30 L 781.30 439.50 L 784.80 437.70 L 787.40 435.60 Z" fill="#b5f2f7" fill-rule="nonzero" group-id="9" node-id="68" stroke="none" target-height="156.4" target-width="154.09998" target-x="641.5" target-y="435.6"></path></g><g node-id="139"><path d="M 614.30 446.00 L 614.50 454.90 L 614.30 554.50 L 589.80 554.50 L 589.90 487.20 L 589.50 463.30 L 589.80 455.40 L 589.80 466.50 L 596.00 465.90 L 602.00 465.80 L 614.30 466.50 L 614.00 451.10 L 614.30 446.00 Z" fill="#b5f2f7" fill-rule="nonzero" group-id="10" node-id="73" stroke="none" target-height="108.5" target-width="25" target-x="589.5" target-y="446"></path></g><g node-id="140"><path d="M 455.90 543.40 L 451.10 542.10 L 446.50 540.30 L 442.10 537.90 L 438.00 535.00 L 434.30 531.80 L 430.80 528.10 L 427.70 524.10 L 425.00 519.90 L 422.70 515.50 L 420.80 510.90 L 419.40 506.20 L 418.50 501.60 L 418.10 496.80 L 418.30 492.30 L 419.10 487.80 L 421.30 481.50 L 425.10 475.80 L 430.20 470.90 L 433.20 469.00 L 438.00 466.50 L 443.10 464.60 L 453.80 462.00 L 464.30 460.70 L 469.20 460.40 L 473.60 460.50 L 477.50 461.00 L 481.00 461.90 L 484.40 463.30 L 487.50 464.90 L 490.20 466.90 L 492.60 469.10 L 495.40 472.50 L 497.70 476.30 L 499.50 480.50 L 500.80 484.90 L 501.60 489.50 L 501.90 494.50 L 501.70 499.40 L 501.10 504.40 L 500.00 509.40 L 498.50 514.30 L 496.60 519.10 L 494.20 523.70 L 491.40 528.00 L 488.20 532.00 L 484.60 535.60 L 481.70 538.00 L 478.70 539.90 L 472.80 542.30 L 466.40 543.40 L 455.90 543.40 Z M 464.30 488.20 L 454.90 490.10 L 450.40 491.70 L 446.00 493.70 L 447.80 502.30 L 448.70 505.10 L 451.40 510.00 L 453.10 512.10 L 455.30 514.00 L 457.90 515.70 L 460.10 516.00 L 462.30 515.70 L 464.50 514.80 L 468.50 511.70 L 470.40 509.60 L 473.40 504.80 L 475.20 499.60 L 475.60 494.90 L 475.10 492.80 L 474.10 491.00 L 472.60 489.50 L 469.50 488.30 L 464.30 488.20 Z" fill="#000000" fill-rule="nonzero" group-id="11" node-id="78" stroke="none" target-height="83.00003" target-width="83.79999" target-x="418.1" target-y="460.4"></path></g><g node-id="141"><path d="M 820.70 470.00 L 844.40 470.00 L 845.20 474.50 L 846.30 478.30 L 848.60 482.50 L 852.00 485.70 L 854.40 487.00 L 857.50 488.20 L 857.20 496.30 L 857.50 520.60 L 854.20 521.90 L 851.90 523.30 L 850.20 525.00 L 847.50 529.10 L 846.70 531.40 L 845.80 535.10 L 845.30 539.10 L 844.60 555.20 L 841.50 578.20 L 837.60 600.40 L 834.40 614.40 L 832.80 620.20 L 831.00 625.50 L 829.30 629.10 L 827.20 632.20 L 825.10 634.50 L 822.70 636.10 L 820.10 637.30 L 817.60 637.80 L 815.00 637.80 L 812.60 637.20 L 810.30 636.10 L 808.20 634.30 L 806.40 632.10 L 805.00 629.30 L 804.00 625.80 L 804.90 621.80 L 812.20 598.60 L 815.20 587.10 L 817.70 575.60 L 819.70 564.10 L 821.20 552.50 L 822.30 540.80 L 823.00 529.10 L 823.30 517.40 L 823.10 501.70 L 822.20 485.90 L 820.70 470.00 Z" fill="#01e5ce" fill-rule="nonzero" group-id="12" node-id="83" stroke="none" target-height="167.79999" target-width="53.5" target-x="804" target-y="470"></path></g><g node-id="142"><path d="M 446.00 493.70 L 450.40 491.70 L 454.90 490.10 L 459.50 489.00 L 464.30 488.20 L 467.20 488.00 L 469.50 488.30 L 472.60 489.50 L 474.10 491.00 L 475.10 492.80 L 475.60 494.90 L 475.20 499.60 L 474.50 502.30 L 472.00 507.30 L 470.40 509.60 L 468.50 511.70 L 464.50 514.80 L 462.30 515.70 L 460.10 516.00 L 457.90 515.70 L 455.30 514.00 L 453.10 512.10 L 451.40 510.00 L 448.70 505.10 L 447.80 502.30 L 446.00 493.70 Z" fill="#ff7873" fill-rule="nonzero" group-id="13" node-id="88" stroke="none" target-height="28" target-width="29.600006" target-x="446" target-y="488"></path></g><g node-id="143"><path d="M 589.80 554.50 L 614.30 554.50 L 614.30 571.00 L 609.20 570.90 L 602.10 570.20 L 597.50 568.60 L 595.50 567.30 L 593.80 565.70 L 592.40 563.60 L 591.30 561.30 L 590.40 558.30 L 589.80 554.50 Z" fill="#3ecedf" fill-rule="nonzero" group-id="14" node-id="93" stroke="none" target-height="16.5" target-width="24.5" target-x="589.8" target-y="554.5"></path></g><g node-id="144"><path d="M 641.50 554.50 L 664.20 554.60 L 682.90 555.30 L 691.40 556.10 L 699.40 557.20 L 707.40 558.80 L 715.60 560.90 L 724.00 563.50 L 733.40 566.90 L 754.70 575.90 L 779.30 589.20 L 785.80 592.00 L 783.90 598.70 L 781.50 605.30 L 768.30 597.50 L 756.80 591.30 L 742.20 584.40 L 728.80 579.40 L 715.60 575.70 L 701.90 573.30 L 683.40 571.70 L 670.70 571.20 L 641.50 571.00 L 641.50 554.50 Z" fill="#3ecedf" fill-rule="nonzero" group-id="15" node-id="98" stroke="none" target-height="50.799988" target-width="144.29999" target-x="641.5" target-y="554.5"></path></g><g node-id="145"><path d="M 492.90 631.20 L 488.60 634.50 L 484.30 637.20 L 466.00 646.60 L 460.20 646.90 L 449.10 646.90 L 443.90 646.10 L 440.60 645.20 L 437.40 643.90 L 434.40 642.20 L 431.50 640.10 L 428.80 637.50 L 426.20 634.20 L 432.30 624.50 L 434.30 620.00 L 435.80 615.70 L 436.70 611.20 L 437.40 606.40 L 437.70 595.00 L 445.40 594.60 L 467.40 594.50 L 474.90 594.10 L 483.20 593.30 L 483.30 607.00 L 484.60 615.50 L 485.90 619.60 L 487.50 623.40 L 489.80 627.30 L 492.90 631.20 Z" fill="#ffcdaa" fill-rule="nonzero" group-id="16" node-id="103" stroke="none" target-height="53.600037" target-width="66.69998" target-x="426.2" target-y="593.3"></path></g><g node-id="146"><path d="M 659.70 597.90 L 685.00 597.90 L 684.60 618.60 L 684.80 629.70 L 685.80 638.60 L 686.70 641.40 L 687.90 643.50 L 689.40 645.10 L 691.20 646.40 L 695.60 648.10 L 699.20 648.70 L 711.00 649.70 L 714.80 650.30 L 718.10 651.50 L 720.10 652.60 L 721.80 654.20 L 723.30 656.20 L 724.40 658.40 L 725.10 661.40 L 725.50 665.30 L 725.40 669.10 L 724.70 672.00 L 723.70 674.40 L 722.30 676.50 L 720.50 678.20 L 718.40 679.50 L 713.60 681.20 L 710.70 681.70 L 706.40 682.20 L 692.90 682.50 L 685.10 683.50 L 682.80 684.20 L 679.50 686.40 L 678.00 688.40 L 677.00 690.60 L 676.50 693.00 L 676.40 695.60 L 677.20 700.60 L 678.20 702.90 L 679.50 705.00 L 681.10 706.70 L 682.80 707.90 L 686.40 709.30 L 692.60 710.00 L 698.60 709.90 L 699.10 729.50 L 698.80 734.80 L 698.20 739.90 L 697.50 743.20 L 695.20 748.90 L 693.60 751.40 L 691.50 753.50 L 689.10 755.30 L 684.80 757.00 L 679.00 757.60 L 674.10 756.90 L 666.60 754.40 L 661.80 752.30 L 652.70 747.70 L 645.50 743.50 L 648.50 734.70 L 651.00 725.90 L 653.20 717.10 L 654.90 708.30 L 656.80 696.50 L 658.10 684.60 L 658.90 672.60 L 659.60 654.50 L 659.70 597.90 Z" fill="#ffcdaa" fill-rule="nonzero" group-id="17" node-id="108" stroke="none" target-height="159.69995" target-width="80" target-x="645.5" target-y="597.9"></path></g><g node-id="147"><path d="M 326.20 661.90 L 344.20 657.00 L 382.50 649.20 L 401.20 644.90 L 403.80 649.50 L 406.90 653.90 L 410.50 658.10 L 414.60 661.90 L 418.90 665.30 L 423.70 668.30 L 428.70 670.90 L 433.80 673.00 L 439.00 674.60 L 444.40 675.70 L 449.70 676.20 L 455.00 676.10 L 458.90 675.70 L 466.30 673.60 L 469.80 672.00 L 472.00 670.20 L 475.80 665.90 L 479.50 663.30 L 490.50 656.70 L 492.80 654.80 L 495.00 652.60 L 497.50 649.30 L 499.70 645.50 L 502.50 640.10 L 518.60 645.20 L 527.40 647.50 L 540.70 650.60 L 581.90 659.10 L 595.30 662.20 L 607.90 665.70 L 616.20 668.40 L 623.80 671.30 L 630.90 674.50 L 630.40 684.60 L 629.30 694.60 L 627.60 704.60 L 625.30 714.50 L 622.60 724.20 L 619.50 733.80 L 601.60 726.90 L 596.00 725.10 L 590.30 723.50 L 584.60 722.40 L 579.40 722.00 L 576.00 722.10 L 573.10 722.70 L 570.60 723.70 L 568.90 724.80 L 567.50 726.20 L 566.30 727.90 L 565.40 730.10 L 564.90 735.50 L 564.80 745.80 L 566.40 828.50 L 565.90 837.90 L 384.80 837.90 L 385.20 829.70 L 385.20 821.60 L 384.10 763.20 L 384.20 744.70 L 383.90 739.90 L 382.30 732.20 L 379.80 726.90 L 378.10 724.70 L 375.90 722.70 L 373.20 721.00 L 369.20 717.30 L 364.70 714.30 L 362.20 713.40 L 359.40 713.10 L 356.20 713.40 L 353.60 714.20 L 351.50 715.50 L 349.70 717.10 L 348.30 719.10 L 347.10 721.40 L 345.90 725.20 L 345.20 729.60 L 344.90 734.10 L 345.10 755.00 L 320.90 755.00 L 320.80 688.60 L 321.40 682.70 L 322.40 677.00 L 325.80 666.70 L 326.20 664.10 L 326.20 661.90 Z" fill="#01e5ce" fill-rule="nonzero" group-id="18" node-id="113" stroke="none" target-height="197.80005" target-width="310.10004" target-x="320.8" target-y="640.1"></path></g><g node-id="148"><path d="M 302.00 755.00 L 302.00 704.30 L 302.30 697.60 L 303.10 691.20 L 303.90 687.10 L 306.60 679.50 L 308.50 675.90 L 310.90 672.60 L 313.80 669.50 L 317.20 666.80 L 321.20 664.20 L 326.20 661.90 L 326.20 664.10 L 325.80 666.70 L 322.40 677.00 L 321.40 682.70 L 320.80 688.60 L 320.90 755.00 L 311.50 754.80 L 302.00 755.00 Z" fill="#00c2ad" fill-rule="nonzero" group-id="19" node-id="118" stroke="none" target-height="93.099976" target-width="24.200012" target-x="302" target-y="661.9"></path></g><g node-id="149"><path d="M 373.20 721.00 L 375.90 722.70 L 378.10 724.70 L 379.80 726.90 L 382.30 732.20 L 383.90 739.90 L 384.20 744.70 L 384.10 763.20 L 385.20 829.70 L 384.80 837.90 L 373.20 837.90 L 373.20 752.00 L 373.70 728.00 L 373.20 721.00 Z" fill="#00c2ad" fill-rule="nonzero" group-id="20" node-id="123" stroke="none" target-height="116.900024" target-width="12" target-x="373.2" target-y="721"></path></g><path d="M 345.10 783.70 L 339.10 784.00 L 320.90 783.70 L 320.90 810.30 L 323.00 799.80 L 323.00 801.40 L 323.60 802.10 L 325.80 802.90 L 328.00 803.10 L 330.70 803.00 L 336.40 802.20 L 341.60 800.80 L 345.10 799.40 L 345.10 837.90 L 302.00 837.90 L 302.20 833.30 L 302.00 783.70 L 336.90 783.50 L 345.10 783.70 Z" fill="#ffcdaa" fill-rule="nonzero" group-id="21" node-id="128" stroke="none" target-height="54.400024" target-width="43.100006" target-x="302" target-y="783.5"></path></svg>