<?xml version="1.0" standalone="no"?><!DOCTYPE svg PUBLIC "-//W3C//DTD SVG 1.1//EN" "http://www.w3.org/Graphics/SVG/1.1/DTD/svg11.dtd"><svg t="1743513861011" class="icon" viewBox="0 0 1032 1024" version="1.1" xmlns="http://www.w3.org/2000/svg" p-id="16428" xmlns:xlink="http://www.w3.org/1999/xlink" width="201.5625" height="200"><path d="M116.370108 179.865663Q0 322.421167 0 506.737498q0 105.165984 40.65739 201.334717 39.256875 92.815983 110.852926 164.369595 71.553611 71.596051 164.369595 110.852926 96.168733 40.65739 201.377156 40.65739 99.988321 0 192.125266-36.880243 88.996396-35.649486 159.531451-101.049317 70.280415-65.230072 112.50808-150.916157 43.500861-88.274918 51.352236-186.692964a53.049831 53.049831 0 0 0-72.232649-53.601549q-64.169075 25.16684-133.855332 25.16684-151.934715 0-259.434891-107.457737-107.500177-107.500177-107.500177-259.519771 0-44.349658 10.482647-87.42612A53.007391 53.007391 0 0 0 407.507578 1.193833q-176.380076 38.110998-291.13747 178.67183zM692.279068 34.933526h178.120111q20.031616 0 36.158765 11.755842 14.556873 10.609966 21.092612 27.501032 14.684193 38.026119-14.429554 66.503268l-95.489695 93.155502H891.237152a53.049831 53.049831 0 1 1 0 106.099661h-183.340214q-19.437458 0-35.225087-11.034365-14.769073-10.312887-21.644331-26.991753-6.832818-16.763746-3.564949-34.50361 3.522509-19.097939 17.527664-32.763576l95.914094-93.62234h-68.582821a53.049831 53.049831 0 1 1 0-106.099661zM138.396398 666.735787q-32.296737-76.349316-32.296737-159.998289 0-146.544852 92.476465-259.81685 65.357391-80.041584 155.711862-118.279902-0.636598 12.180241-0.636598 24.445362 0 96.168733 37.219761 184.104132 35.904125 84.879729 101.346396 150.364439 65.442271 65.399831 150.322 101.346397 87.935399 37.177321 184.189012 37.177321 44.307218 0 86.916842-7.936255-29.410826 108.943132-116.879387 190.088153-118.195022 109.62217-279.551387 109.62217-83.648973 0-159.998288-32.254297-73.760484-31.23574-130.714783-88.147599-56.911858-56.954298-88.105158-130.714782z" p-id="16429"></path></svg>