<?xml version="1.0" standalone="no"?><!DOCTYPE svg PUBLIC "-//W3C//DTD SVG 1.1//EN" "http://www.w3.org/Graphics/SVG/1.1/DTD/svg11.dtd"><svg t="1743514122325" class="icon" viewBox="0 0 1024 1024" version="1.1" xmlns="http://www.w3.org/2000/svg" p-id="18996" xmlns:xlink="http://www.w3.org/1999/xlink" width="200" height="200"><path d="M912.071749 204.340807A502.643946 502.643946 0 0 0 577.434978 11.479821c-132.017937-17.219731-263.461883 17.793722-369.650225 98.152466l-38.457399-38.457399c-10.90583-10.90583-21.237668-7.461883-22.38565 8.035874l-12.627803 137.757848c-1.147982 15.497758 10.331839 26.977578 25.255606 25.829596l137.757847-12.627802c15.497758-1.147982 18.941704-11.479821 8.035875-22.385651l-40.179372-40.179372A423.203587 423.203587 0 0 1 566.529148 91.838565c112.502242 14.923767 211.802691 72.32287 280.681614 161.865471 68.878924 89.542601 98.726457 200.896861 84.376682 313.399103a417.406278 417.406278 0 0 1-92.412556 213.524664c-20.089686 24.681614-43.623318 47.067265-69.452915 67.15695a422.859193 422.859193 0 0 1-313.399103 84.376682 422.342601 422.342601 0 0 1-280.681614-161.865471A419.644843 419.644843 0 0 1 90.690583 464.932735a40.638565 40.638565 0 0 0-35.587444-44.7713 40.638565 40.638565 0 0 0-44.7713 35.587444c-14.923767 130.295964 21.237668 260.017937 101.596412 363.910314a500.405381 500.405381 0 0 0 334.636771 192.860986c133.73991 17.219731 266.331839-18.367713 373.094171-100.44843 30.995516-23.533632 58.547085-50.511211 83.228699-80.358745a505.915695 505.915695 0 0 0 110.206278-254.852017c17.219731-133.73991-18.367713-266.331839-100.44843-373.094171z" p-id="18997" fill="#000000"></path><path d="M492.484305 183.67713a32.717489 32.717489 0 0 0-32.717489 32.717489v327.748879l299.623319 154.977578c4.591928 2.295964 9.757848 3.443946 14.923766 3.443946 12.053812 0 23.533632-6.313901 29.273543-17.793722a32.143498 32.143498 0 0 0-14.349776-44.197309l-264.035874-136.609865V216.394619a32.717489 32.717489 0 0 0-32.717489-32.717489z" p-id="18998" fill="#000000"></path></svg>