<?xml version="1.0" standalone="no"?><!DOCTYPE svg PUBLIC "-//W3C//DTD SVG 1.1//EN" "http://www.w3.org/Graphics/SVG/1.1/DTD/svg11.dtd"><svg t="1743514033199" class="icon" viewBox="0 0 1024 1024" version="1.1" xmlns="http://www.w3.org/2000/svg" p-id="17750" xmlns:xlink="http://www.w3.org/1999/xlink" width="200" height="200"><path d="M834.80808 440.235536c-2.707668-17.020652-18.621103-28.635177-35.722596-25.941835-1.290389 0.203638-130.923842 20.465101-286.911522 20.465101-155.991774 0-285.626249-20.261463-286.916639-20.465101-17.050328-2.712785-33.019021 8.922207-35.722596 25.941835-2.697435 17.020652 8.906857 33.013905 25.931602 35.71748 5.456269 0.86367 135.542023 21.237697 296.706609 21.237697 161.15947 0 291.245224-20.374026 296.701492-21.237697C825.902246 473.250464 837.506539 457.256188 834.80808 440.235536z" fill="#000000" p-id="17751"></path><path d="M397.310911 539.004027c-17.238616 0-31.215956 13.972223-31.215956 31.215956l0 28.716019c0 17.243733 13.977339 31.215956 31.215956 31.215956s31.215956-13.972223 31.215956-31.215956L428.526867 570.219983C428.525843 552.97625 414.549527 539.004027 397.310911 539.004027z" fill="#000000" p-id="17752"></path><path d="M627.033943 539.004027c-17.238616 0-31.215956 13.972223-31.215956 31.215956l0 28.716019c0 17.243733 13.977339 31.215956 31.215956 31.215956 17.238616 0 31.215956-13.972223 31.215956-31.215956L658.249899 570.219983C658.249899 552.97625 644.272559 539.004027 627.033943 539.004027z" fill="#000000" p-id="17753"></path><path d="M511.88232 761.598708c42.195008 0 72.079642-29.081339 83.089393-46.264697 9.206686-14.378475 5.02955-33.298384-9.221012-42.698474-14.246469-9.419534-33.537837-5.41636-43.135426 8.68787-0.121773 0.183172-12.335956 17.84339-30.732955 17.84339-17.807574 0-29.046546-16.237823-29.859052-17.447371-9.175987-14.419408-28.268834-18.778692-42.794665-9.734712-14.647605 9.094122-19.144012 28.340465-10.044774 42.982954C439.944917 732.294288 469.469348 761.598708 511.88232 761.598708z" fill="#000000" p-id="17754"></path><path d="M889.99703 326.56566c-10.898211-18.908652-44.732807-72.77856-103.051027-123.781164-12.985756-11.360745-32.694633-10.029424-44.049239 2.947122-11.350512 12.976546-10.029424 32.69975 2.947122 44.039006 60.703547 53.088102 91.617627 110.648053 92.577488 112.451118 2.573615 5.492084 6.757914 10.29753 12.374842 13.610996 33.553187 19.814278 50.786687 37.352723 45.746904 73.243141-20.927635 149.880589-79.161944 246.209518-183.300746 303.174927-1.590218 0.873903-3.236718 1.706875-4.88731 2.550079-12.493545 6.401804-35.752272 18.300808-40.162722 46.600341-8.56098 54.983265-38.678928 59.270918-100.546997 63.11241l-2.373047 0.14224c-43.617403 2.76395-91.736331 1.077541-147.091056-5.131881-44.51689-5.009084-55.17667-20.74958-58.549487-46.285163-4.964058-37.220716-32.633235-52.188616-49.160653-61.131289-2.402723-1.300622-4.816702-2.601244-7.138584-3.953032-98.219999-57.421804-153.909345-151.373593-175.253466-295.655673-5.131881-34.778084 6.343475-57.314357 37.969776-73.561389 0.813528 0.064468 1.626034 0.267083 2.436492 0.267083 11.700483 0 22.924105-6.614651 28.248368-17.904789 0.954745-2.022053 98.138134-202.597231 315.423903-202.597231 17.238616 0 31.215956-13.977339 31.215956-31.215956 0-17.238616-13.977339-31.215956-31.215956-31.215956-219.425502 0-332.189751 167.32489-363.060853 221.73715-80.433914 35.284621-89.613994 97.308233-82.779332 143.625118 24.00574 162.256454 91.223654 273.605471 205.539236 340.436576 2.926656 1.706875 5.918803 3.332908 8.901741 4.948709 15.536858 8.403391 16.400528 10.04989 16.984836 14.429641 7.767917 58.833967 45.939285 92.51916 113.472378 100.120278 40.558741 4.542456 77.643358 6.797823 112.211664 6.797823 15.739473 0 30.962176-0.467651 45.746904-1.401929l2.337231-0.14224c55.821353-3.464915 139.881864-8.677637 157.806095-112.394836 2.02717-1.25969 5.187139-2.87549 7.483438-4.044106 2.194992-1.127683 4.369517-2.246157 6.442736-3.384074 121.199363-66.303079 191.567014-180.557262 215.126592-349.266685C969.146695 380.950292 918.747841 344.137875 889.99703 326.56566z" fill="#000000" p-id="17755"></path><path d="M607.719038 172.250062c18.407232 5.395894 36.631292 12.498662 54.175877 21.10569 4.424776 2.174526 9.109472 3.200902 13.722536 3.200902 11.537777 0 22.629393-6.42227 28.05087-17.477047 7.590885-15.47546 1.199315-34.177404-14.277168-41.773406-20.723997-10.166547-42.291199-18.564821-64.092737-24.961508-16.568351-4.877077-33.892925 4.618181-38.745443 21.160949C581.701478 150.047388 591.177294 167.392428 607.719038 172.250062z" fill="#000000" p-id="17756"></path><path d="M422.688905 322.749752c4.028757 0 8.129144-0.793062 12.07706-2.448772 15.897062-6.67605 23.366174-24.976858 16.685008-40.868803l-10.791787-25.677822c-6.670933-15.902178-24.966625-23.350824-40.868803-16.685008-15.897062 6.67605-23.366174 24.976858-16.685008 40.868803l10.791787 25.677822C398.916479 315.566142 410.495188 322.749752 422.688905 322.749752z" fill="#000000" p-id="17757"></path><path d="M644.058688 363.426173l21.196765-25.677822c10.973936-13.300934 9.094122-32.973996-4.201695-43.947931-13.295817-10.984169-32.963763-9.083889-43.942815 4.196579l-21.196765 25.677822c-10.973936 13.300934-9.094122 32.973996 4.201695 43.947931 5.817496 4.806469 12.853749 7.143701 19.85521 7.143701C628.963898 374.766452 637.886105 370.894262 644.058688 363.426173z" fill="#000000" p-id="17758"></path><path d="M310.776046 368.872209c5.522784 3.983731 11.904121 5.89322 18.22406 5.89322 9.69378 0 19.250436-4.501524 25.352411-12.966313 10.075473-13.992689 6.909363-33.502022-7.077186-43.572378l-21.196765-15.272845c-13.987572-10.089799-33.486672-6.909363-43.577494 7.072069-10.075473 13.992689-6.909363 33.502022 7.077186 43.572378L310.776046 368.872209z" fill="#000000" p-id="17759"></path></svg>