<?xml version="1.0" standalone="no"?><!DOCTYPE svg PUBLIC "-//W3C//DTD SVG 1.1//EN" "http://www.w3.org/Graphics/SVG/1.1/DTD/svg11.dtd"><svg t="1743514158147" class="icon" viewBox="0 0 1024 1024" version="1.1" xmlns="http://www.w3.org/2000/svg" p-id="21177" xmlns:xlink="http://www.w3.org/1999/xlink" width="200" height="200"><path d="M416 560h48v192h80V480h-128v80z m505.76 253.712l-116.992-448A104.032 104.032 0 0 0 704.128 288h-66.32A151.04 151.04 0 0 0 656 216C656 132.192 587.808 64 504 64S352 132.192 352 216a151.04 151.04 0 0 0 18.192 72H303.84a104.032 104.032 0 0 0-100.624 77.712l-116.992 448a103.264 103.264 0 0 0 18.304 89.856A103.264 103.264 0 0 0 186.88 944H821.12c32.48 0 62.48-14.72 82.32-40.432a103.28 103.28 0 0 0 18.304-89.856zM504 144c39.696 0 72 32.304 72 72S543.696 288 504 288 432 255.696 432 216 464.304 144 504 144z m336.144 710.672A23.632 23.632 0 0 1 821.12 864H186.88c-10.24 0-16.304-5.84-19.008-9.328a23.6 23.6 0 0 1-4.224-20.736l117.008-448A24 24 0 0 1 303.856 368H704.16a24 24 0 0 1 23.216 17.936l117.008 448a23.6 23.6 0 0 1-4.224 20.736z" fill="#000000" p-id="21178"></path></svg>